<mxfile host="app.diagrams.net" agent="Mozilla/5.0 (X11; Linux x86_64) AppleWebKit/537.36 (KHTML, like Gecko) Chrome/137.0.0.0 Safari/537.36" version="27.1.4">
  <diagram name="Página-1" id="7ERIjwQvnktd2pereJde">
    <mxGraphModel dx="2758" dy="1237" grid="1" gridSize="10" guides="1" tooltips="1" connect="1" arrows="1" fold="1" page="1" pageScale="1" pageWidth="827" pageHeight="1169" math="0" shadow="0">
      <root>
        <mxCell id="0" />
        <mxCell id="1" parent="0" />
        <mxCell id="aWAq4-83WFejdwoQO6e6-8" value="" style="edgeStyle=none;curved=1;rounded=0;orthogonalLoop=1;jettySize=auto;html=1;fontSize=12;startSize=8;endSize=8;" edge="1" parent="1" source="H6_uLiXJobDVrNfoFZqB-1" target="aWAq4-83WFejdwoQO6e6-7">
          <mxGeometry relative="1" as="geometry" />
        </mxCell>
        <mxCell id="aWAq4-83WFejdwoQO6e6-10" style="edgeStyle=none;curved=1;rounded=0;orthogonalLoop=1;jettySize=auto;html=1;entryX=1;entryY=0.75;entryDx=0;entryDy=0;fontSize=12;startSize=8;endSize=8;" edge="1" parent="1" source="H6_uLiXJobDVrNfoFZqB-1" target="aWAq4-83WFejdwoQO6e6-9">
          <mxGeometry relative="1" as="geometry" />
        </mxCell>
        <mxCell id="H6_uLiXJobDVrNfoFZqB-1" value="core" style="rounded=1;whiteSpace=wrap;html=1;" parent="1" vertex="1">
          <mxGeometry x="-388" y="150" width="120" height="60" as="geometry" />
        </mxCell>
        <mxCell id="H6_uLiXJobDVrNfoFZqB-8" style="edgeStyle=none;curved=1;rounded=0;orthogonalLoop=1;jettySize=auto;html=1;entryX=0.5;entryY=0;entryDx=0;entryDy=0;fontSize=12;startSize=8;endSize=8;" parent="1" source="H6_uLiXJobDVrNfoFZqB-3" target="H6_uLiXJobDVrNfoFZqB-7" edge="1">
          <mxGeometry relative="1" as="geometry" />
        </mxCell>
        <mxCell id="H6_uLiXJobDVrNfoFZqB-9" value="Funcionalidad" style="edgeLabel;html=1;align=center;verticalAlign=middle;resizable=0;points=[];fontSize=12;" parent="H6_uLiXJobDVrNfoFZqB-8" vertex="1" connectable="0">
          <mxGeometry x="-0.0735" y="2" relative="1" as="geometry">
            <mxPoint as="offset" />
          </mxGeometry>
        </mxCell>
        <mxCell id="H6_uLiXJobDVrNfoFZqB-10" style="edgeStyle=none;curved=1;rounded=0;orthogonalLoop=1;jettySize=auto;html=1;fontSize=12;startSize=8;endSize=8;entryX=0.5;entryY=0;entryDx=0;entryDy=0;" parent="1" source="H6_uLiXJobDVrNfoFZqB-3" target="H6_uLiXJobDVrNfoFZqB-53" edge="1">
          <mxGeometry relative="1" as="geometry">
            <mxPoint x="980" y="300" as="targetPoint" />
          </mxGeometry>
        </mxCell>
        <mxCell id="H6_uLiXJobDVrNfoFZqB-12" value="Funcionalidad" style="edgeLabel;html=1;align=center;verticalAlign=middle;resizable=0;points=[];fontSize=12;" parent="H6_uLiXJobDVrNfoFZqB-10" vertex="1" connectable="0">
          <mxGeometry x="-0.3345" y="2" relative="1" as="geometry">
            <mxPoint as="offset" />
          </mxGeometry>
        </mxCell>
        <mxCell id="H6_uLiXJobDVrNfoFZqB-3" value="feature" style="rounded=1;whiteSpace=wrap;html=1;" parent="1" vertex="1">
          <mxGeometry x="620" y="160" width="120" height="60" as="geometry" />
        </mxCell>
        <mxCell id="H6_uLiXJobDVrNfoFZqB-4" value="&lt;h1 style=&quot;margin-top: 0px;&quot;&gt;Capa de funcionalidades&lt;/h1&gt;&lt;div&gt;register&lt;/div&gt;&lt;div&gt;login&lt;/div&gt;&lt;div&gt;home--Actualizar eliminar - etc&lt;/div&gt;" style="text;html=1;whiteSpace=wrap;overflow=hidden;rounded=0;" parent="1" vertex="1">
          <mxGeometry x="595" y="10" width="180" height="130" as="geometry" />
        </mxCell>
        <mxCell id="H6_uLiXJobDVrNfoFZqB-6" value="&lt;h1 style=&quot;margin-top: 0px;&quot;&gt;Capa de ayudas&lt;/h1&gt;&lt;div&gt;&lt;br&gt;&lt;/div&gt;&lt;div&gt;&lt;span style=&quot;text-align: center;&quot;&gt;Es la capa responsable de los estilos y las utilidades de la aplicación sele puede llamar capa de ayuda&lt;/span&gt;&lt;/div&gt;" style="text;html=1;whiteSpace=wrap;overflow=hidden;rounded=0;" parent="1" vertex="1">
          <mxGeometry x="-388" y="10" width="190" height="120" as="geometry" />
        </mxCell>
        <mxCell id="H6_uLiXJobDVrNfoFZqB-15" style="edgeStyle=none;curved=1;rounded=0;orthogonalLoop=1;jettySize=auto;html=1;entryX=0.5;entryY=0;entryDx=0;entryDy=0;fontSize=12;startSize=8;endSize=8;" parent="1" source="H6_uLiXJobDVrNfoFZqB-16" target="H6_uLiXJobDVrNfoFZqB-14" edge="1">
          <mxGeometry relative="1" as="geometry" />
        </mxCell>
        <mxCell id="H6_uLiXJobDVrNfoFZqB-36" style="edgeStyle=none;curved=1;rounded=0;orthogonalLoop=1;jettySize=auto;html=1;fontSize=12;startSize=8;endSize=8;" parent="1" source="H6_uLiXJobDVrNfoFZqB-7" target="H6_uLiXJobDVrNfoFZqB-18" edge="1">
          <mxGeometry relative="1" as="geometry">
            <Array as="points">
              <mxPoint x="20" y="510" />
            </Array>
          </mxGeometry>
        </mxCell>
        <mxCell id="H6_uLiXJobDVrNfoFZqB-37" style="edgeStyle=none;curved=1;rounded=0;orthogonalLoop=1;jettySize=auto;html=1;entryX=0.5;entryY=0;entryDx=0;entryDy=0;fontSize=12;startSize=8;endSize=8;" parent="1" source="H6_uLiXJobDVrNfoFZqB-7" target="H6_uLiXJobDVrNfoFZqB-19" edge="1">
          <mxGeometry relative="1" as="geometry">
            <Array as="points">
              <mxPoint x="-40" y="470" />
            </Array>
          </mxGeometry>
        </mxCell>
        <mxCell id="H6_uLiXJobDVrNfoFZqB-7" value="register" style="rounded=1;whiteSpace=wrap;html=1;" parent="1" vertex="1">
          <mxGeometry x="210" y="290" width="120" height="60" as="geometry" />
        </mxCell>
        <mxCell id="H6_uLiXJobDVrNfoFZqB-44" value="" style="edgeStyle=none;curved=1;rounded=0;orthogonalLoop=1;jettySize=auto;html=1;fontSize=12;startSize=8;endSize=8;" parent="1" source="H6_uLiXJobDVrNfoFZqB-14" target="H6_uLiXJobDVrNfoFZqB-43" edge="1">
          <mxGeometry relative="1" as="geometry" />
        </mxCell>
        <mxCell id="H6_uLiXJobDVrNfoFZqB-46" value="" style="edgeStyle=none;curved=1;rounded=0;orthogonalLoop=1;jettySize=auto;html=1;fontSize=12;startSize=8;endSize=8;" parent="1" source="H6_uLiXJobDVrNfoFZqB-14" target="H6_uLiXJobDVrNfoFZqB-45" edge="1">
          <mxGeometry relative="1" as="geometry" />
        </mxCell>
        <mxCell id="H6_uLiXJobDVrNfoFZqB-47" value="" style="edgeStyle=none;curved=1;rounded=0;orthogonalLoop=1;jettySize=auto;html=1;fontSize=12;startSize=8;endSize=8;" parent="1" source="H6_uLiXJobDVrNfoFZqB-14" target="H6_uLiXJobDVrNfoFZqB-45" edge="1">
          <mxGeometry relative="1" as="geometry" />
        </mxCell>
        <mxCell id="H6_uLiXJobDVrNfoFZqB-51" style="edgeStyle=none;curved=1;rounded=0;orthogonalLoop=1;jettySize=auto;html=1;entryX=0;entryY=0.5;entryDx=0;entryDy=0;fontSize=12;startSize=8;endSize=8;" parent="1" source="H6_uLiXJobDVrNfoFZqB-14" target="H6_uLiXJobDVrNfoFZqB-49" edge="1">
          <mxGeometry relative="1" as="geometry" />
        </mxCell>
        <mxCell id="H6_uLiXJobDVrNfoFZqB-14" value="data" style="rounded=1;whiteSpace=wrap;html=1;" parent="1" vertex="1">
          <mxGeometry x="210" y="600" width="120" height="60" as="geometry" />
        </mxCell>
        <mxCell id="H6_uLiXJobDVrNfoFZqB-17" value="" style="edgeStyle=none;curved=1;rounded=0;orthogonalLoop=1;jettySize=auto;html=1;entryX=0.5;entryY=0;entryDx=0;entryDy=0;fontSize=12;startSize=8;endSize=8;" parent="1" source="H6_uLiXJobDVrNfoFZqB-7" target="H6_uLiXJobDVrNfoFZqB-16" edge="1">
          <mxGeometry relative="1" as="geometry">
            <mxPoint x="270" y="350" as="sourcePoint" />
            <mxPoint x="270" y="440" as="targetPoint" />
          </mxGeometry>
        </mxCell>
        <mxCell id="H6_uLiXJobDVrNfoFZqB-16" value="dentro de las funcionalidades se crean las tres capas de la arquitectura&lt;div&gt;&lt;br&gt;&lt;/div&gt;" style="text;html=1;align=center;verticalAlign=middle;whiteSpace=wrap;rounded=0;" parent="1" vertex="1">
          <mxGeometry x="215" y="380" width="110" height="100" as="geometry" />
        </mxCell>
        <mxCell id="H6_uLiXJobDVrNfoFZqB-21" value="" style="edgeStyle=none;curved=1;rounded=0;orthogonalLoop=1;jettySize=auto;html=1;fontSize=12;startSize=8;endSize=8;" parent="1" source="H6_uLiXJobDVrNfoFZqB-18" target="H6_uLiXJobDVrNfoFZqB-20" edge="1">
          <mxGeometry relative="1" as="geometry" />
        </mxCell>
        <mxCell id="H6_uLiXJobDVrNfoFZqB-22" value="la ui contiene a&amp;nbsp;" style="edgeLabel;html=1;align=center;verticalAlign=middle;resizable=0;points=[];fontSize=12;" parent="H6_uLiXJobDVrNfoFZqB-21" vertex="1" connectable="0">
          <mxGeometry x="-0.1381" y="1" relative="1" as="geometry">
            <mxPoint as="offset" />
          </mxGeometry>
        </mxCell>
        <mxCell id="H6_uLiXJobDVrNfoFZqB-23" style="edgeStyle=none;curved=1;rounded=0;orthogonalLoop=1;jettySize=auto;html=1;fontSize=12;startSize=8;endSize=8;entryX=0;entryY=0.5;entryDx=0;entryDy=0;" parent="1" source="H6_uLiXJobDVrNfoFZqB-18" target="H6_uLiXJobDVrNfoFZqB-24" edge="1">
          <mxGeometry relative="1" as="geometry">
            <mxPoint x="405" y="890" as="targetPoint" />
          </mxGeometry>
        </mxCell>
        <mxCell id="H6_uLiXJobDVrNfoFZqB-26" style="edgeStyle=none;curved=1;rounded=0;orthogonalLoop=1;jettySize=auto;html=1;entryX=0;entryY=0.5;entryDx=0;entryDy=0;fontSize=12;startSize=8;endSize=8;" parent="1" source="H6_uLiXJobDVrNfoFZqB-18" target="H6_uLiXJobDVrNfoFZqB-25" edge="1">
          <mxGeometry relative="1" as="geometry" />
        </mxCell>
        <mxCell id="H6_uLiXJobDVrNfoFZqB-18" value="presentation" style="rounded=1;whiteSpace=wrap;html=1;" parent="1" vertex="1">
          <mxGeometry x="210" y="940" width="120" height="60" as="geometry" />
        </mxCell>
        <mxCell id="aWAq4-83WFejdwoQO6e6-4" style="edgeStyle=none;curved=1;rounded=0;orthogonalLoop=1;jettySize=auto;html=1;entryX=0;entryY=0.5;entryDx=0;entryDy=0;fontSize=12;startSize=8;endSize=8;" edge="1" parent="1" source="H6_uLiXJobDVrNfoFZqB-19" target="aWAq4-83WFejdwoQO6e6-1">
          <mxGeometry relative="1" as="geometry" />
        </mxCell>
        <mxCell id="aWAq4-83WFejdwoQO6e6-5" style="edgeStyle=none;curved=1;rounded=0;orthogonalLoop=1;jettySize=auto;html=1;entryX=0;entryY=0.5;entryDx=0;entryDy=0;fontSize=12;startSize=8;endSize=8;" edge="1" parent="1" source="H6_uLiXJobDVrNfoFZqB-19" target="aWAq4-83WFejdwoQO6e6-2">
          <mxGeometry relative="1" as="geometry" />
        </mxCell>
        <mxCell id="aWAq4-83WFejdwoQO6e6-6" style="edgeStyle=none;curved=1;rounded=0;orthogonalLoop=1;jettySize=auto;html=1;entryX=0;entryY=0.5;entryDx=0;entryDy=0;fontSize=12;startSize=8;endSize=8;" edge="1" parent="1" source="H6_uLiXJobDVrNfoFZqB-19" target="aWAq4-83WFejdwoQO6e6-3">
          <mxGeometry relative="1" as="geometry" />
        </mxCell>
        <mxCell id="H6_uLiXJobDVrNfoFZqB-19" value="domain" style="rounded=1;whiteSpace=wrap;html=1;" parent="1" vertex="1">
          <mxGeometry x="170" y="1280" width="120" height="60" as="geometry" />
        </mxCell>
        <mxCell id="H6_uLiXJobDVrNfoFZqB-28" value="" style="edgeStyle=none;curved=1;rounded=0;orthogonalLoop=1;jettySize=auto;html=1;fontSize=12;startSize=8;endSize=8;" parent="1" source="H6_uLiXJobDVrNfoFZqB-20" target="H6_uLiXJobDVrNfoFZqB-27" edge="1">
          <mxGeometry relative="1" as="geometry" />
        </mxCell>
        <mxCell id="H6_uLiXJobDVrNfoFZqB-29" value="register" style="edgeLabel;html=1;align=center;verticalAlign=middle;resizable=0;points=[];fontSize=12;" parent="H6_uLiXJobDVrNfoFZqB-28" vertex="1" connectable="0">
          <mxGeometry x="-0.093" y="2" relative="1" as="geometry">
            <mxPoint as="offset" />
          </mxGeometry>
        </mxCell>
        <mxCell id="H6_uLiXJobDVrNfoFZqB-32" style="edgeStyle=none;curved=1;rounded=0;orthogonalLoop=1;jettySize=auto;html=1;entryX=0;entryY=0.5;entryDx=0;entryDy=0;fontSize=12;startSize=8;endSize=8;" parent="1" source="H6_uLiXJobDVrNfoFZqB-20" target="H6_uLiXJobDVrNfoFZqB-30" edge="1">
          <mxGeometry relative="1" as="geometry" />
        </mxCell>
        <mxCell id="H6_uLiXJobDVrNfoFZqB-34" value="register" style="edgeLabel;html=1;align=center;verticalAlign=middle;resizable=0;points=[];fontSize=12;" parent="H6_uLiXJobDVrNfoFZqB-32" vertex="1" connectable="0">
          <mxGeometry x="-0.1308" y="-2" relative="1" as="geometry">
            <mxPoint as="offset" />
          </mxGeometry>
        </mxCell>
        <mxCell id="H6_uLiXJobDVrNfoFZqB-33" style="edgeStyle=none;curved=1;rounded=0;orthogonalLoop=1;jettySize=auto;html=1;entryX=0;entryY=0.5;entryDx=0;entryDy=0;fontSize=12;startSize=8;endSize=8;" parent="1" source="H6_uLiXJobDVrNfoFZqB-20" target="H6_uLiXJobDVrNfoFZqB-31" edge="1">
          <mxGeometry relative="1" as="geometry" />
        </mxCell>
        <mxCell id="H6_uLiXJobDVrNfoFZqB-35" value="register" style="edgeLabel;html=1;align=center;verticalAlign=middle;resizable=0;points=[];fontSize=12;" parent="H6_uLiXJobDVrNfoFZqB-33" vertex="1" connectable="0">
          <mxGeometry x="-0.1955" y="-4" relative="1" as="geometry">
            <mxPoint as="offset" />
          </mxGeometry>
        </mxCell>
        <mxCell id="H6_uLiXJobDVrNfoFZqB-20" value="Bloc" style="rounded=1;whiteSpace=wrap;html=1;" parent="1" vertex="1">
          <mxGeometry x="425" y="950" width="120" height="60" as="geometry" />
        </mxCell>
        <mxCell id="H6_uLiXJobDVrNfoFZqB-24" value="Screens" style="rounded=1;whiteSpace=wrap;html=1;" parent="1" vertex="1">
          <mxGeometry x="425" y="1040" width="120" height="60" as="geometry" />
        </mxCell>
        <mxCell id="H6_uLiXJobDVrNfoFZqB-25" value="wedgets" style="rounded=1;whiteSpace=wrap;html=1;" parent="1" vertex="1">
          <mxGeometry x="425" y="870" width="120" height="60" as="geometry" />
        </mxCell>
        <mxCell id="H6_uLiXJobDVrNfoFZqB-27" value="Register_Bloc" style="rounded=1;whiteSpace=wrap;html=1;" parent="1" vertex="1">
          <mxGeometry x="655" y="870" width="120" height="60" as="geometry" />
        </mxCell>
        <mxCell id="H6_uLiXJobDVrNfoFZqB-30" value="register_Bloc_event" style="rounded=1;whiteSpace=wrap;html=1;" parent="1" vertex="1">
          <mxGeometry x="655" y="960" width="120" height="60" as="geometry" />
        </mxCell>
        <mxCell id="H6_uLiXJobDVrNfoFZqB-31" value="Register_Bloc_state" style="rounded=1;whiteSpace=wrap;html=1;" parent="1" vertex="1">
          <mxGeometry x="655" y="1050" width="120" height="60" as="geometry" />
        </mxCell>
        <mxCell id="H6_uLiXJobDVrNfoFZqB-43" value="datasource" style="rounded=1;whiteSpace=wrap;html=1;" parent="1" vertex="1">
          <mxGeometry x="420" y="530" width="120" height="60" as="geometry" />
        </mxCell>
        <mxCell id="H6_uLiXJobDVrNfoFZqB-45" value="models" style="rounded=1;whiteSpace=wrap;html=1;" parent="1" vertex="1">
          <mxGeometry x="420" y="620" width="120" height="60" as="geometry" />
        </mxCell>
        <mxCell id="H6_uLiXJobDVrNfoFZqB-49" value="repositories" style="rounded=1;whiteSpace=wrap;html=1;" parent="1" vertex="1">
          <mxGeometry x="425" y="700" width="120" height="60" as="geometry" />
        </mxCell>
        <mxCell id="H6_uLiXJobDVrNfoFZqB-52" style="edgeStyle=none;curved=1;rounded=0;orthogonalLoop=1;jettySize=auto;html=1;entryX=0.5;entryY=0;entryDx=0;entryDy=0;fontSize=12;startSize=8;endSize=8;" parent="1" source="H6_uLiXJobDVrNfoFZqB-60" target="H6_uLiXJobDVrNfoFZqB-58" edge="1">
          <mxGeometry relative="1" as="geometry" />
        </mxCell>
        <mxCell id="H6_uLiXJobDVrNfoFZqB-83" style="edgeStyle=none;curved=1;rounded=0;orthogonalLoop=1;jettySize=auto;html=1;entryX=0.5;entryY=0;entryDx=0;entryDy=0;fontSize=12;startSize=8;endSize=8;" parent="1" source="H6_uLiXJobDVrNfoFZqB-53" target="H6_uLiXJobDVrNfoFZqB-65" edge="1">
          <mxGeometry relative="1" as="geometry">
            <Array as="points">
              <mxPoint x="910" y="600" />
            </Array>
          </mxGeometry>
        </mxCell>
        <mxCell id="H6_uLiXJobDVrNfoFZqB-84" style="edgeStyle=none;curved=1;rounded=0;orthogonalLoop=1;jettySize=auto;html=1;entryX=0.5;entryY=0;entryDx=0;entryDy=0;fontSize=12;startSize=8;endSize=8;" parent="1" source="H6_uLiXJobDVrNfoFZqB-53" target="H6_uLiXJobDVrNfoFZqB-66" edge="1">
          <mxGeometry relative="1" as="geometry">
            <Array as="points">
              <mxPoint x="770" y="700" />
            </Array>
          </mxGeometry>
        </mxCell>
        <mxCell id="H6_uLiXJobDVrNfoFZqB-53" value="login" style="rounded=1;whiteSpace=wrap;html=1;" parent="1" vertex="1">
          <mxGeometry x="1010" y="300" width="120" height="60" as="geometry" />
        </mxCell>
        <mxCell id="H6_uLiXJobDVrNfoFZqB-54" value="" style="edgeStyle=none;curved=1;rounded=0;orthogonalLoop=1;jettySize=auto;html=1;fontSize=12;startSize=8;endSize=8;" parent="1" source="H6_uLiXJobDVrNfoFZqB-58" target="H6_uLiXJobDVrNfoFZqB-79" edge="1">
          <mxGeometry relative="1" as="geometry" />
        </mxCell>
        <mxCell id="H6_uLiXJobDVrNfoFZqB-55" value="" style="edgeStyle=none;curved=1;rounded=0;orthogonalLoop=1;jettySize=auto;html=1;fontSize=12;startSize=8;endSize=8;" parent="1" source="H6_uLiXJobDVrNfoFZqB-58" target="H6_uLiXJobDVrNfoFZqB-80" edge="1">
          <mxGeometry relative="1" as="geometry" />
        </mxCell>
        <mxCell id="H6_uLiXJobDVrNfoFZqB-56" value="" style="edgeStyle=none;curved=1;rounded=0;orthogonalLoop=1;jettySize=auto;html=1;fontSize=12;startSize=8;endSize=8;" parent="1" source="H6_uLiXJobDVrNfoFZqB-58" target="H6_uLiXJobDVrNfoFZqB-80" edge="1">
          <mxGeometry relative="1" as="geometry" />
        </mxCell>
        <mxCell id="H6_uLiXJobDVrNfoFZqB-57" style="edgeStyle=none;curved=1;rounded=0;orthogonalLoop=1;jettySize=auto;html=1;entryX=0;entryY=0.5;entryDx=0;entryDy=0;fontSize=12;startSize=8;endSize=8;" parent="1" source="H6_uLiXJobDVrNfoFZqB-58" target="H6_uLiXJobDVrNfoFZqB-81" edge="1">
          <mxGeometry relative="1" as="geometry" />
        </mxCell>
        <mxCell id="H6_uLiXJobDVrNfoFZqB-58" value="data" style="rounded=1;whiteSpace=wrap;html=1;" parent="1" vertex="1">
          <mxGeometry x="1010" y="610" width="120" height="60" as="geometry" />
        </mxCell>
        <mxCell id="H6_uLiXJobDVrNfoFZqB-59" value="" style="edgeStyle=none;curved=1;rounded=0;orthogonalLoop=1;jettySize=auto;html=1;entryX=0.5;entryY=0;entryDx=0;entryDy=0;fontSize=12;startSize=8;endSize=8;" parent="1" source="H6_uLiXJobDVrNfoFZqB-53" target="H6_uLiXJobDVrNfoFZqB-60" edge="1">
          <mxGeometry relative="1" as="geometry">
            <mxPoint x="1070" y="360" as="sourcePoint" />
            <mxPoint x="1070" y="450" as="targetPoint" />
          </mxGeometry>
        </mxCell>
        <mxCell id="H6_uLiXJobDVrNfoFZqB-60" value="dentro de las funcionalidades se crean las tres capas de la arquitectura&lt;div&gt;&lt;br&gt;&lt;/div&gt;" style="text;html=1;align=center;verticalAlign=middle;whiteSpace=wrap;rounded=0;" parent="1" vertex="1">
          <mxGeometry x="1015" y="390" width="110" height="100" as="geometry" />
        </mxCell>
        <mxCell id="H6_uLiXJobDVrNfoFZqB-61" value="" style="edgeStyle=none;curved=1;rounded=0;orthogonalLoop=1;jettySize=auto;html=1;fontSize=12;startSize=8;endSize=8;" parent="1" source="H6_uLiXJobDVrNfoFZqB-65" target="H6_uLiXJobDVrNfoFZqB-73" edge="1">
          <mxGeometry relative="1" as="geometry" />
        </mxCell>
        <mxCell id="H6_uLiXJobDVrNfoFZqB-62" value="la ui contiene a&amp;nbsp;" style="edgeLabel;html=1;align=center;verticalAlign=middle;resizable=0;points=[];fontSize=12;" parent="H6_uLiXJobDVrNfoFZqB-61" vertex="1" connectable="0">
          <mxGeometry x="-0.1381" y="1" relative="1" as="geometry">
            <mxPoint as="offset" />
          </mxGeometry>
        </mxCell>
        <mxCell id="H6_uLiXJobDVrNfoFZqB-63" style="edgeStyle=none;curved=1;rounded=0;orthogonalLoop=1;jettySize=auto;html=1;fontSize=12;startSize=8;endSize=8;entryX=0;entryY=0.5;entryDx=0;entryDy=0;" parent="1" source="H6_uLiXJobDVrNfoFZqB-65" target="H6_uLiXJobDVrNfoFZqB-74" edge="1">
          <mxGeometry relative="1" as="geometry">
            <mxPoint x="1205" y="900" as="targetPoint" />
          </mxGeometry>
        </mxCell>
        <mxCell id="H6_uLiXJobDVrNfoFZqB-64" style="edgeStyle=none;curved=1;rounded=0;orthogonalLoop=1;jettySize=auto;html=1;entryX=0;entryY=0.5;entryDx=0;entryDy=0;fontSize=12;startSize=8;endSize=8;" parent="1" source="H6_uLiXJobDVrNfoFZqB-65" target="H6_uLiXJobDVrNfoFZqB-75" edge="1">
          <mxGeometry relative="1" as="geometry" />
        </mxCell>
        <mxCell id="H6_uLiXJobDVrNfoFZqB-65" value="presentation" style="rounded=1;whiteSpace=wrap;html=1;" parent="1" vertex="1">
          <mxGeometry x="1010" y="950" width="120" height="60" as="geometry" />
        </mxCell>
        <mxCell id="H6_uLiXJobDVrNfoFZqB-66" value="domain" style="rounded=1;whiteSpace=wrap;html=1;" parent="1" vertex="1">
          <mxGeometry x="1010" y="1150" width="120" height="60" as="geometry" />
        </mxCell>
        <mxCell id="H6_uLiXJobDVrNfoFZqB-67" value="" style="edgeStyle=none;curved=1;rounded=0;orthogonalLoop=1;jettySize=auto;html=1;fontSize=12;startSize=8;endSize=8;" parent="1" source="H6_uLiXJobDVrNfoFZqB-73" target="H6_uLiXJobDVrNfoFZqB-76" edge="1">
          <mxGeometry relative="1" as="geometry" />
        </mxCell>
        <mxCell id="H6_uLiXJobDVrNfoFZqB-68" value="login" style="edgeLabel;html=1;align=center;verticalAlign=middle;resizable=0;points=[];fontSize=12;" parent="H6_uLiXJobDVrNfoFZqB-67" vertex="1" connectable="0">
          <mxGeometry x="-0.093" y="2" relative="1" as="geometry">
            <mxPoint as="offset" />
          </mxGeometry>
        </mxCell>
        <mxCell id="H6_uLiXJobDVrNfoFZqB-69" style="edgeStyle=none;curved=1;rounded=0;orthogonalLoop=1;jettySize=auto;html=1;entryX=0;entryY=0.5;entryDx=0;entryDy=0;fontSize=12;startSize=8;endSize=8;" parent="1" source="H6_uLiXJobDVrNfoFZqB-73" target="H6_uLiXJobDVrNfoFZqB-77" edge="1">
          <mxGeometry relative="1" as="geometry" />
        </mxCell>
        <mxCell id="H6_uLiXJobDVrNfoFZqB-70" value="login" style="edgeLabel;html=1;align=center;verticalAlign=middle;resizable=0;points=[];fontSize=12;" parent="H6_uLiXJobDVrNfoFZqB-69" vertex="1" connectable="0">
          <mxGeometry x="-0.1308" y="-2" relative="1" as="geometry">
            <mxPoint as="offset" />
          </mxGeometry>
        </mxCell>
        <mxCell id="H6_uLiXJobDVrNfoFZqB-71" style="edgeStyle=none;curved=1;rounded=0;orthogonalLoop=1;jettySize=auto;html=1;entryX=0;entryY=0.5;entryDx=0;entryDy=0;fontSize=12;startSize=8;endSize=8;" parent="1" source="H6_uLiXJobDVrNfoFZqB-73" target="H6_uLiXJobDVrNfoFZqB-78" edge="1">
          <mxGeometry relative="1" as="geometry" />
        </mxCell>
        <mxCell id="H6_uLiXJobDVrNfoFZqB-72" value="login" style="edgeLabel;html=1;align=center;verticalAlign=middle;resizable=0;points=[];fontSize=12;" parent="H6_uLiXJobDVrNfoFZqB-71" vertex="1" connectable="0">
          <mxGeometry x="-0.1955" y="-4" relative="1" as="geometry">
            <mxPoint as="offset" />
          </mxGeometry>
        </mxCell>
        <mxCell id="H6_uLiXJobDVrNfoFZqB-73" value="Bloc" style="rounded=1;whiteSpace=wrap;html=1;" parent="1" vertex="1">
          <mxGeometry x="1225" y="960" width="120" height="60" as="geometry" />
        </mxCell>
        <mxCell id="H6_uLiXJobDVrNfoFZqB-74" value="Screens" style="rounded=1;whiteSpace=wrap;html=1;" parent="1" vertex="1">
          <mxGeometry x="1225" y="1050" width="120" height="60" as="geometry" />
        </mxCell>
        <mxCell id="H6_uLiXJobDVrNfoFZqB-75" value="wedgets" style="rounded=1;whiteSpace=wrap;html=1;" parent="1" vertex="1">
          <mxGeometry x="1225" y="880" width="120" height="60" as="geometry" />
        </mxCell>
        <mxCell id="H6_uLiXJobDVrNfoFZqB-76" value="Login_Bloc" style="rounded=1;whiteSpace=wrap;html=1;" parent="1" vertex="1">
          <mxGeometry x="1455" y="880" width="120" height="60" as="geometry" />
        </mxCell>
        <mxCell id="H6_uLiXJobDVrNfoFZqB-77" value="Login_Bloc_event" style="rounded=1;whiteSpace=wrap;html=1;" parent="1" vertex="1">
          <mxGeometry x="1455" y="970" width="120" height="60" as="geometry" />
        </mxCell>
        <mxCell id="H6_uLiXJobDVrNfoFZqB-78" value="Login_Bloc_state" style="rounded=1;whiteSpace=wrap;html=1;" parent="1" vertex="1">
          <mxGeometry x="1455" y="1060" width="120" height="60" as="geometry" />
        </mxCell>
        <mxCell id="H6_uLiXJobDVrNfoFZqB-79" value="datasource" style="rounded=1;whiteSpace=wrap;html=1;" parent="1" vertex="1">
          <mxGeometry x="1220" y="540" width="120" height="60" as="geometry" />
        </mxCell>
        <mxCell id="H6_uLiXJobDVrNfoFZqB-80" value="models" style="rounded=1;whiteSpace=wrap;html=1;" parent="1" vertex="1">
          <mxGeometry x="1220" y="630" width="120" height="60" as="geometry" />
        </mxCell>
        <mxCell id="H6_uLiXJobDVrNfoFZqB-81" value="repositories" style="rounded=1;whiteSpace=wrap;html=1;" parent="1" vertex="1">
          <mxGeometry x="1225" y="710" width="120" height="60" as="geometry" />
        </mxCell>
        <mxCell id="aWAq4-83WFejdwoQO6e6-1" value="entities" style="rounded=1;whiteSpace=wrap;html=1;" vertex="1" parent="1">
          <mxGeometry x="390" y="1190" width="120" height="60" as="geometry" />
        </mxCell>
        <mxCell id="aWAq4-83WFejdwoQO6e6-2" value="repositories" style="rounded=1;whiteSpace=wrap;html=1;" vertex="1" parent="1">
          <mxGeometry x="390" y="1280" width="120" height="60" as="geometry" />
        </mxCell>
        <mxCell id="aWAq4-83WFejdwoQO6e6-3" value="usescase" style="rounded=1;whiteSpace=wrap;html=1;" vertex="1" parent="1">
          <mxGeometry x="390" y="1370" width="120" height="60" as="geometry" />
        </mxCell>
        <mxCell id="aWAq4-83WFejdwoQO6e6-7" value="network" style="rounded=1;whiteSpace=wrap;html=1;" vertex="1" parent="1">
          <mxGeometry x="-130" y="250" width="120" height="60" as="geometry" />
        </mxCell>
        <mxCell id="aWAq4-83WFejdwoQO6e6-9" value="errors" style="rounded=1;whiteSpace=wrap;html=1;" vertex="1" parent="1">
          <mxGeometry x="-130" y="100" width="120" height="60" as="geometry" />
        </mxCell>
      </root>
    </mxGraphModel>
  </diagram>
</mxfile>
